<?xml version="1.0" encoding="UTF-8"?>
<svg version="1.1" viewBox="0 0 960 944" width="240" height="236" xmlns="http://www.w3.org/2000/svg">
<path transform="translate(451,134)" d="m0 0h24l24 4 18 6 16 8 14 9 16 13 20 20 15 20 13 21 11 21 8 21 4 14 2 15v15l-2 12-4 9-6 10-11 12-10 8-11 7-15 6-15 4-8 1-19 1-57 1-24 2-13 3-17 8-13 10-11 11-9 12-8 14-6 16-3 16-1 9v16l4 19 5 13 6 11 9 11 10 10 14 10 14 7 16 5 6 1h23l23-6 29-8 40-9 36-6 27-3 14-1h52l25 3 21 5 19 7 17 9 16 10 16 13 14 12 12 11 8 7 17 17 7 8 9 10 9 11 10 13 10 15 10 17 8 19 7 23 3 14 1 12v20l-2 16-4 16-7 17-6 10-7 9-12 12-17 12-14 7-21 7-16 3-22 2h-22l-19-2-15-4-16-7-16-11-14-13-9-11-12-15-13-19-14-19-11-14-12-14-13-13-11-9-17-12-17-10-16-8-15-7-21-7-11-3-22-3h-34l-24 4-25 7-25 11-13 7-17 11-14 10-13 10-11 9-10 9-8 7-7 7h-2v2l-8 7-16 17-18 20-12 14-9 10-9 9-12 9-14 8-19 7-16 3h-24l-20-4-17-6-16-8-11-7-10-8-10-9-9-10-9-14-7-14-7-21-3-15-1-8v-11l3-19 5-17 10-21 10-17 13-21 9-15 11-17 13-20 12-19 15-23 16-25 13-21 7-11 19-29 9-15 12-22 12-20 13-22 10-17 9-14 11-18 13-21 15-24 8-13 12-19 10-17 16-26 11-18 12-19 9-15 9-14 8-12 12-17 14-15 12-10 14-8 16-5z" fill="#1D8553"/>
<path transform="translate(649,563)" d="m0 0h52l25 3 21 5 19 7 17 9 16 10 16 13 14 12 12 11 8 7 17 17 7 8 9 10 9 11 10 13 10 15 10 17 8 19 7 23 3 14 1 12v20l-2 16-4 16-7 17-6 10-7 9-12 12-17 12-14 7-21 7-16 3-22 2h-22l-19-2-15-4-16-7-16-11-14-13-9-11-12-15-13-19-14-19-11-14-12-14-13-13-11-9-17-12-17-10-16-8-15-7-21-7-11-3-22-3h-34l-24 4-25 7-25 11-13 7-17 11-14 10-8 5 2-9 10-18 7-10 10-15 5-5 1-2h2l2-4 9-11 7-7 9-11 7-7 7-8 12-13 1-2h2l2-4 13-12 11-9h2v-2l14-11 5-4 5-5 16-13 1-2 1-9 37-10 36-8 36-6 27-3z" fill="#CBB925"/>
<path transform="translate(451,134)" d="m0 0h24l24 4 18 6 16 8 14 9 16 13 20 20 15 20 13 21 11 21 8 21 4 14 2 15v15l-2 12-4 9-6 10-11 12-10 8-11 7-15 6-15 4-8 1-19 1-57 1-24 2-13 3-3 1-12 1-22 3-21 4-16 4-35 12-19 7-30 13-18 10-14 7-18 11-19 13-14 11-13 10-9 7-1-2 10-18 12-21 15-25 14-24 9-14 11-18 13-21 15-24 8-13 12-19 10-17 16-26 11-18 12-19 9-15 9-14 8-12 12-17 14-15 12-10 14-8 16-5z" fill="#E27324"/>
<path transform="translate(376,414)" d="m0 0h26l8 1-6 7-9 10-10 16-6 14-4 15-2 16v16l4 19 5 13 6 11 9 11 10 10 14 10 14 7 16 5 6 1h23l16-4h3v6l-5 5h-2v2h-2v2l-13 10-8 7-14 10-7 7-6 4h-2l-2 4-4 3h-2l-2 4h-2l-2 4-3 3h-2l-2 4-22 22h-2l-2 4-4 6-5 3-7 8-10 11-4 6h-2l-2 4-5 6h-2l-3 6h-2l-2 4-12 13-9 11-10 9-3 1-3 3-4 2-8 8-8 7-9 9-1 2h-2v2l-2-1-4 1h-2l-1 3-4 1-6-2v-2l-3-1-3-8v-22l-1-1-2 4v-31l1-6 2 1 1-6h-2l1 4h-2l-1-7 4-1v-9l1-3-2 1-2 6-1-4 1-3v-15l2-11 3-7v-17l-2-14-2-7-5-2-3-11v-8l1-4v-21l-1-2-2-13-1-4 3-1-2-5-3-12-1-18 1-14 3-10-1-13 2-2v-9l3-10-6-2-4 1-4-3 1-5 8-7 11-9 16-8 13-7 11-7 19-10 17-7 11-4 7-4 11-4 15-6z" fill="#2C847F"/>
<path transform="translate(433,397)" d="m0 0h5l-4 3-11 6-12 9-5 1-7-1h-23l-9 3-19 8-10 4-8 4-14 5-16 8-17 9-5 4-14 7-17 9-13 12-3 1v5l4 2 5-1 5 2-3 11v9l-2 2 1 14-3 9-1 20 1 12 3 12 2 3-1 3h-3l3 8 1 9 1 2v21l-1 8 1 7 2 8 4 2 3 7 2 17v14l-3 7-2 11v15 1l3-1v12l-2 3v-3l-2 2v6h2l-1-4h2v7l-2-1-1 11v21l2-2 1 3v22l3 8 2 1v2l7 1 3-1 3-3 5-2 1 1h2l2-4 14-14 8-7 6-5 5-3 8-6 10-11 9-11 7-8h2l2-4 7-8 3-4h2l2-4 9-11 7-8h2l2-4 4-2 3-5 43-43 8-7 8-6 9-8 14-10 8-7 6-5h2v-2h2v-2l7-5-2 5-13 11-5 4h-2l-2 4-14 11-4 2v2l-10 8-10 9-7 6-1 2h-2l-2 4-14 15-11 12-9 11-8 8-10 13h-2l-2 5-4 2-2 5-8 11-10 16-7 14-3 8-14 11-11 10-8 7-7 7h-2v2l-8 7-16 17-18 20-12 14-9 10-9 9-9 7-5-1h-9l-9 2h-9l-2-3v-6l-4-1-2-2 4-2 1-3h-2l-4-14-2-5 1-3 3 3 1 6 2 1-2-4-2-8-3-6h-3l-1-9-2-2v-7h2l3 8 3-1-1-15 1-3v-13l2-14-3 6h-1l1-9 4-9v-8l-3-1h2v-2l-2-1h3l-1-7 1-12-4-4-1-9-1-5v2l-3-1v-14l2-6h2l-3-7 3-1-2-5 1-9h2v-12l1-5-2-8v-13l-1-8 1-8h1l2-22 1-6h-2l-1-7h2l2 2v-12l-1-4v-6l-1-1v-7l-2-4v-3l-4-2h2v-13l4-14 4-8 4-7 7-9-1-5 3-5 1-3-9 4-5 4-3 4h-2l-1 4-5 5-4 5h-3l7-11 11-17 6-4 16-13 11-8 12-9 20-13 21-12 28-14 28-12 28-10 28-9 12-3 24-4z" fill="#268469"/>
<path transform="translate(787,590)" d="m0 0 9 5 13 10 13 11 10 9 8 7 10 9 16 16 7 8 9 10 9 11 10 13 10 15 10 17 8 19 7 23 3 14 1 12v20l-2 16-4 16-7 17-6 10-7 9-12 12-17 12-14 7-21 7-16 3-5-1v-3h2l-5-8-5-1-5-4-3-5-3-7-3-8-1-4-5-4-4-9-4-11-3-14-2-4-1-4v-11l1-23v-16l2-7 1-5 3-6 2-7v-6l5-8v-17l-1-2-1-16-1-4 1-6-3 1-2-13h-2v-4h-2l-2-4v-9l3-1-5-11-3-13-1-3 1-3-1-5-4 1-1-1v-10l3-9 3-5 8-2v-3h7l5 2-1-7-5-4-5-8-2-1v-2l-3-1z" fill="#E3C224"/>
<path transform="translate(608,567)" d="m0 0h44l1 5-5-1-1 3h3l2 7h-3l-1-4h-2v-2h-3l-2 3 2 4-3 2v2h2l2-7 2 2-1 4-2 2-9 3-3 3h-2l-3 19 1 10 1 18 1 8 3 13 2 3v8l1 4-1 8 3 10v6l2 4-3 11-1 3v17l3 8 2 3v10l3 7-3 9 3 1v5l-1 1-1 14-4 1-5-2-5-3-13-11-16-11-17-10-16-8-15-7-21-7-11-3-22-3h-34l-24 4-25 7-25 11-13 7-17 11-14 10-8 5 2-9 10-18 7-10 10-15 5-5 1-2h2l2-4 9-11 7-7 9-11 7-7 7-8 12-13 1-2h2l2-4 13-12 11-9h2v-2l14-11 5-4 5-5 16-13 1-2 1-9 37-10 36-8z" fill="#9DA82E"/>
<path transform="translate(451,134)" d="m0 0h24v1l-19 2-4 2-7 1-3 1v2l-5 1v2l-4 2v3l1 3-1 6 1 6v9l2 3v21l-1 5-1 17-1 5v14l-2 4h-2l2 4-1 9-3 1-2 7-4-1-1 11 2 2-1 5-2 16-1 4v7l-2 5 2 9v10l2 5v14h-4v14l-4 2v6h-2l2 9 3 3 2 1-1 3 2 2-1 2-8 4-7 1-1 2-8 1v2l-10 2-16 4-35 12-19 7-30 13-18 10-14 7-18 11-19 13-14 11-13 10-9 7-1-2 10-18 12-21 15-25 14-24 9-14 11-18 13-21 15-24 8-13 12-19 10-17 16-26 11-18 12-19 9-15 9-14 8-12 12-17 14-15 12-10 14-8 16-5z" fill="#E98825"/>
<path transform="translate(376,414)" d="m0 0h26l8 1-6 7-9 10-10 16-6 14-4 15-2 16v16l4 19 5 13 6 11 9 11 10 10 14 10 14 7 16 5 6 1h23l16-4h3v6l-5 5h-2v2h-2v2l-13 10-8 7-14 10-7 7-6 4h-2l-2 4-4 3h-2l-2 4h-2l-2 4-3 3h-2l-2 4-22 22h-2l-2 4-4 6-8 3-8 4-4 3 1-5 7-6 1-2-10 8-7 1-7 6-8 5-4-1-3 1v-2h-2l-4-15v-21l-5-12 1-12 1-5-3-1-1-11v-8l3-4-1-7 1-15v-9h-3l1-12-2-6 2-2 1 1-2-16-3-14-2-11v-24l-1-6v-24l3-15 8-15 7-3-5-1-14 1-10 4-4-3-1-4 12-6 21-8 7-4 11-4 15-6z" fill="#32848B"/>
<path transform="translate(545,173)" d="m0 0 14 1 6 2 18 18 15 20 13 21 11 21 8 21 4 14 2 15v15l-2 12-4 9-6 10-11 12-10 8-11 7-15 6-15 4-8 1h-22v-2h-5l-2-6v-9h3l1-13 2-1 1-4-3-13 1-21-1-12v-13l-1-15v-12l2-9-1-1v-9l3-7 3-19 3-8 1-21 1-12v-7z" fill="#E14E24"/>
<path transform="translate(653,567)" d="m0 0h8l6 2 6-1 2 4 9 3 2 3 4 1-1 3h-2v2h5v4l-5 1-2 17-1 14 5 2v7l2 5v3l4 2 6 7 2 9h2l2 5 1 6v10l-1 9-1 5 1 2-3 6v12l1 8 2 3v9l-1 2-1 11 2 6 1 9-2 10-4 5-4 11-1 3v7l2 6 2 20v10l1 5-3 8-3 12h-2l1 4-3 1-2-1v-3l-6-1-2-1-1-5-1-3-5-2-3-5-5-3-12-16-9-11-11-12-5-6 7 2h3l1-14 1-1v-5l-2-1 2-10-3-6v-10l-3-4-2-7v-19l2-6 2-7-2-5v-5l-3-9 1-10-2-12-2-7-3-11v-12l-1-15-1-5 2-12 1-5 5-5 6-3 5-2v-2l-2 3h-2l-1-3 3-2-2-4 3-4 3 2v2h2l1 4 2-1-1-6h-3l1-4 4 1z" fill="#B7B228"/>
<path transform="translate(376,184)" d="m0 0 1 4-3 4-8 16h-2l-1 6-1 2h-2l-2 6h-2l-1 6-1 2h-2l-3 9-7 13-4 8h-2v4h-2l1 3-4 11-2 10v13l3-1v8l-3 21 1 4-3 6v12l-1 9-1 8h-2l-1 20v3l-3 6 4-2 2 7-1 4 3 1v2l-4 1 5 1 9 1-1 3h-3v2l7-2 17-5 21-6 19-4 1 2h-5v2l-10 2-16 4-35 12-19 7-30 13-18 10-14 7-18 11-19 13-14 11-13 10-9 7-1-2 10-18 12-21 15-25 14-24 9-14 11-18 13-21 15-24 8-13 12-19 10-17 16-26 11-18 12-19 9-15 9-14 8-12z" fill="#EE9D2C"/>
<path transform="translate(515,150)" d="m0 0 6 1 9 4 6 1 5 4h5l17 14-4 1-14-1-4 2v10l-2 25v6l-3 7-3 19-3 7v9l1 3-2 10v13l1 19v9l1 9-1 21 3 13-2 4h-2l1 6-2 7h-3l1 11 2 1 1 2 3 1v2l3 1h-55l-6-3-1-7v-8l4-17-2-15 1-2 1-10 1-5 2 1 1-4h-1v-5h2l-1-4 1-2h2v-9l2-11h2l-1-7 1-6v-12l1-1v-5h2l-1-3 1-3 1-20 1-3 1-11 4-15-1-10 3-16 1-12-1-4 4-8z" fill="#DF6122"/>
<path transform="translate(301,445)" d="m0 0h3l-1 4-5 5-6 5-2 4-6 5-4 8-3 1-1 2h-3l-1 4h-3l-1 9 2 1-5 11-2 12-1 5-1 6-3 12-1 24 1 8 4 6 2 7 2 2 4-1 3 3v4l3 1v14l-1 3 1 7v10l2 10h2l1-5 2 4v6l1 3-1 4v11l-1 6h-2v18l-1 5-2 5-1 13 3 18 1 7h2l1-2 2 8 1 12-6 2v20l3 10 10-2 10-5 1 3 4-2 9-8h2l2-4 10-8 10-10 14-16 8-7 3-2-3 6h-2l-2 4-5 6h-2l-3 6h-2l-2 4-12 13-9 11-10 9-3 1-3 3-4 2-8 8-8 7-9 9-1 2h-2v2l-2-1-4 1h-2l-1 3-4 1-6-2v-2l-3-1-3-8v-22l-1-1-2 4v-31l1-6 2 1 1-6h-2l1 4h-2l-1-7 4-1v-9l1-3-2 1-2 6-1-4 1-3v-15l2-11 3-7v-17l-2-14-2-7-5-2-3-11v-8l1-4v-21l-1-2-2-13-1-4 3-1-2-5-3-12-1-18 1-14 3-10-1-13 2-2v-9l3-10-6-2-4 1-4-3 1-5 8-7 11-9 16-8 13-7 11-7z" fill="#298575"/>
<path transform="translate(528,583)" d="m0 0h5l-5 5-7 8-11 6-4 4-3 1-9 13h-2v3l-2 1-1 3-5 5-5 9-4 12-3 4-3 13v3l-1 10 3 6v9l5 1 1 3 4 1 2 5 5 5 6 4 3 9-2 2-33 1-24 4-25 7-25 11-13 7-17 11-14 10-8 5 2-9 10-18 7-10 10-15 5-5 1-2h2l2-4 9-11 7-7 9-11 7-7 7-8 12-13 1-2h2l2-4 13-12 11-9h2v-2l14-11 5-4 5-5 16-13 1-2 1-9z" fill="#699241"/>
<path transform="translate(591,207)" d="m0 0h2l12 18 12 21 8 17 8 24 3 19v15l-2 12-4 9-6 10-11 12-10 8-11 7-15 6h-3v-3h-2v-2h-4v-2l5-5v-6l1-6 1-10 3-4 1-8-1-4-1 4-4-2-2-3-2-12 1-7h-2v-2l3-2 1-3h-2l3-12h2l4-13-1-9 3-11 2-1v-4l-2-1 1-16 2-6-2-4 1-5-4-10v-5l4-1 4 3v2l3-1z" fill="#DD3F23"/>
<path transform="translate(377,553)" d="m0 0 5 2 10 9 4 4 7 1 9 8 13 8 10 5 16 5 6 1h23l9-1-6 7-4 1v2l-5 3-4 5-19 14-9 9-11 8-8 7-11 10-6 3-7 2v-2h-8l-1-3-5-3-5-6-3-3-4-12-5-5-2-13-1-5 1-6v-20l2-20 2-4 1-7z" fill="#3C8696"/>
<path transform="translate(525,162)" d="m0 0h16l1 1h8l13 11-4 1-14-1-4 2v10l-2 25v6l-3 7-3 19-3 7v9l1 3-2 10v13l1 19v9l1 9-1 21 3 13-2 4h-2l1 6-2 7-5 1-2-1v-8l1-5h-1l-1-5-3 1 1-10v-3l-3-7-4-1v-2h-2l2-4 3-5h2l-1-7-3-1v-3h-2v-4h3l-2-6 1-2h2l1-3h-3l-2-7 1-8 1-1-1-7-1-4 3-8 1-16v-8l1-10h2v-8l1-2 2-22v-8l1-2v-21z" fill="#E35A24"/>
<path transform="translate(433,397)" d="m0 0h5l-4 3-11 6-12 9-5 1-7-1h-23l-9 3-19 8-10 4-8 4-14 5-16 8-17 9-5 4-14 7-17 9-13 12-4 1-1 3-6 4-7 4-8 2-4 2-2 2-5 2-9 6-7 3-5 4-3 4h-2l-1 4-5 5-4 5h-3l7-11 11-17 6-4 16-13 11-8 12-9 20-13 21-12 28-14 28-12 28-10 28-9 12-3 24-4z" fill="#3E8265"/>
<path transform="translate(286,471)" d="m0 0 3 1 2 1-2 13-4 10 1 14 3 9-2 13-1 4 2 6v11l-1 7 4 8-2 5-3 1-1 3 2 9-1 1v17h-3l1 7-2 9-1 15-3 3h-1l-2-13v-11l-1-5 1-6v-10l-2-1-1-6-7 1-3-5-2-6-3-5-1-10 1-23 4-13v-7l2-7 2-9 4-9-1-1 1-9h3l1-4h3l1-3h3l1-3z" fill="#2C867C"/>
<path transform="translate(376,184)" d="m0 0 1 4-3 4-5 10-3 1-2 4-9 16-4 6-4 7-4 6-5 9-7 11-5 10h-2l-2 6-3 4-5 10h-2l-2 6-7 10v2h-2l-3 9-3 3-2 4h-2l-1 6h-2l-2 6h-2l-2 7-3 3 1 2h-2v2h-2l-2 6-1 4h-2v3h-2l-1 5-5 8h-2l-2 7-1 3h-2l-1 5-7 12-7 11-2 6 1 11h-2l1 9h2l1 5h9l8-4 9-4 15-6 22-8 12-5h8l-4 3-10 3-15 7-16 7-10 6-10 5-13 5-5 2v2l-9 5-12 7-8 5-3 1v2h-2v2h-3l-1 2-9 6h-4l-1 4-4 1 2-6 17-29 13-22 10-17 9-14 11-18 13-21 15-24 8-13 12-19 10-17 16-26 11-18 12-19 9-15 9-14 8-12z" fill="#ECB245"/>
<path transform="translate(496,143)" d="m0 0h14l9 2 16 8 9 6-1 2-5-2-4-3-6-1-10-4-9 2-5 1-3 9 1 7-1 8-3 17 1 9-4 15-1 11-1 3-1 20-1 6h-2l1 6h-2l1 7v8l-1 7v3h-2v8l-2 12h-2v6h-2l2 3-1 6-2 2-4 8-3-1v-13l-1-3 1-6-2-4 4-10 3-24 1-15 2-11v-11l1-15 1-28-1-24-3-12v-10h2v-2l4-2z" fill="#E56825"/>
<path transform="translate(501,607)" d="m0 0v3l-7 10h-2v3l-2 1-1 3-5 5-5 9-4 12-3 4-3 13v3l-1 10 3 6v9l5 1 1 3 4 1 2 5 5 5 6 4 3 9-2 2-33 1-17 2-4-2-4-10-1-6h2v-6l4-2-1-6v-9l2-3 2-7 3-4 1-9h2l2-5 4-8h2v-2h2l2-4 6-9 5-6 4-4h2v-2l5-5h2v-2l10-10z" fill="#829936"/>
<path transform="translate(274,360)" d="m0 0 7 1 1 5 3-1 1 10v10l-4 9-1 8-1 9v9l9 5-2 1-1 4-14 8-10 5-9 4-2 1h-9l-1-1v-5h-2l-1-2v-7h2l-2-7 1-7 6-11 6-9 3-6 7-15h2l2-5 4-8h2v-3h3z" fill="#ECAB2D"/>
<path transform="translate(506,602)" d="m0 0 3 1-3 3-8 4-5 5-4 5h-2v2h-2l-2 4-3 1v2l-4 4h-2l-2 4-6 7-3 5-2 3h-2v2l-3 3-5 10h-2v9l-4 5-2 7-1 2v9l1 4-4 4v7l-3-1 3 7 2 7 1 2h3v2l-15 4-13 3v-2h-3l-1-8v-10l-4-2-1-2h2v-2l-3-1 2-3h2l-2-4 3-5 3-9 5-6 3-6 4-5h2l2-6 11-12 24-24 13-10 9-5 5-6 11-7z" fill="#74993E"/>
<path transform="translate(603,224)" d="m0 0 4 4 12 22 9 21 6 20 2 15v15l-2 12-4 9-6 10-11 12-4 2-1-4 3-8-3-1-2-2 1-11h2v-2l-2-1v-5h2l-1-3 2-2-1-17-1-7-1-2 3-12 2-6-3-9v-10l1-8v-8l-4-9-2-8v-2z" fill="#D03425"/>
<path transform="translate(376,414)" d="m0 0h26l8 1-6 7-9 10-10 16-6 14-4 15-1 7h-1l-2-11 1-8-1-7-3-3-1-4-5-4-1-2h-21l-1 1-20 1-10 4-4-3-1-4 12-6 21-8 7-4 11-4 15-6z" fill="#3E8284"/>
<path transform="translate(498,598)" d="m0 0 1 2-4 5-10 8-6 5h-2l-2 4-14 11-4 2v2l-10 8-10 9-7 6-1 2h-2l-2 4-14 15-11 12-9 11-8 8-10 13h-2l-2 5-4 2-2 5-8 11-10 16-7 14-3 8-14 11-11 10h-1l-1-14 10-15 6-8 12-14 10-11 1-2h2l2-4 7-8 3-4h2l2-4 9-11 7-8h2l2-4 4-2 3-5 43-43 8-7 8-6 9-8 14-10 8-7 6-5h2v-2h2v-2z" fill="#3E8265"/>
<path transform="translate(496,592)" d="m0 0h3v6l-5 5h-2v2h-2v2l-13 10-8 7-14 10-7 7-6 4h-2l-2 4-4 3h-2l-2 4h-2l-2 4-3 3h-2l-2 4-22 22h-2l-2 4-4 6-8 3-8 4-4 3 1-5 7-6 2-6 11-9 5-5h2v-2l5-4 3-4h2l2-4 3-1 1-4 12-11 6-5 13-10 8-8 11-8 8-6 5-6h3v-2l4-2 6-7z" fill="#3E8284"/>
<path transform="translate(280,683)" d="m0 0h5v14l4 18 2 12v6l-2 2 3 3 1 2v26l3 3 5-1 6-2-2 4-3 2-1 5-8 4-3 1h-7l-4-10v-20l4-2h3l-1-4-2-14h-3l-2-7-3-18 1-13 2-5 1-5z" fill="#2C867C"/>
<path transform="translate(433,397)" d="m0 0h5l-4 3-11 6h-4-11l-9 1-1 1-16 3-20 6-24 8-5 1v2l-12 3-14 6-18 6-16 7-19 10-10 6h-2v2l-12 7-10 7-6 4h-2v2l-8 5-13 11-8 6-11 11-2-1 6-9 6-4 16-13 11-8 12-9 20-13 21-12 28-14 28-12 28-10 28-9 12-3 24-4z" fill="#699241"/>
<path transform="translate(396,400)" d="m0 0 2 2h-5v2l-10 2-16 4-35 12-19 7-30 13-18 10-14 7-18 11-19 13-14 11-13 10-9 7-1-2 8-14 5-1 1-4h4l1-2 9-6h3v-2h2v-2l5-4 6-3 12-7 7-4h2v-2l5-3 16-6 10-6 11-6 27-12 12-4 17-6 17-5 21-6z" fill="#9EA62E"/>
<path transform="translate(82,663)" d="m0 0 2 4h-3v4l-4 2 1 2-3 5h-2l-1 4-2 4 1 3h-2l2 4h-3l-1 8-7 14-4 1-1 5h-4v4l-4 4h-2l-1 5-1 2h-2l-3 9-4 1-1 4-3 5v2l-5 5h-2v2l4 2-1 3-5-1 1-8 7-17 9-17 14-23 9-15 9-14 6-9z" fill="#1E7D4C"/>
<path transform="translate(56,887)" d="m0 0 5 1 4 4 6 4 6 3 6 2 9 6h2v2l3-1 3 2 4 1 6 3h4v2l6 2 6 1 8 1v2l6-1 8 3 15 1-3 2h-24l-20-4-17-6-16-8-11-7-10-8-6-5z" fill="#1D7D4F"/>
<path transform="translate(498,598)" d="m0 0 1 2-4 5-10 8-6 5h-2l-2 4-14 11-4 2v2l-10 8-10 9-7 6-1 2h-2l-2 4-14 15-11 12-9 11-8 8-5 6-2-2 8-9 4-5 1-2-2-1 2-1 3-5 43-43 8-7 8-6 9-8 14-10 8-7 6-5h2v-2h2v-2z" fill="#268569"/>
<path transform="translate(122,596)" d="m0 0 3 1-1 6-4 1v2 3l-3 6-4 1v4h-2l1 3-2 1-1 3-4 3-1 5-2 1-1 3-4 2-1 5-4 1-1-4 17-26 13-20z" fill="#1E7E51"/>
<path transform="translate(255,452)" d="m0 0 2 1-11 6-11 7-20 13-14 11-6 4-3 1-1 3h-3l-2 4h-2v2h-2v2h-2l2-6 3-5 5-1 1-4h4l1-2 9-6h3v-2h2v-2l5-4 6-3 12-7 7-4h2v-2l5-3z" fill="#CBB924"/>
<path transform="translate(238,466)" d="m0 0m-2 1 2 1-5 5-13 9-6 4h-2v2l-8 5-13 11-8 6-11 11-2-1 6-9 6-4 16-13 11-8 12-9z" fill="#6F953F"/>
<path transform="translate(19,779)" d="m0 0 3 1 2 7-2 9-1 5-3 6-2-4v-11l2-12z" fill="#1F7E51"/>
<path transform="translate(440,394)" d="m0 0m-11 1h11l-2 3-12 1-22 3-4 1h-7v-1l23-5z" fill="#E14F24"/>
<path transform="translate(376,184)" d="m0 0 1 4-3 4-5 10-3 1-2 4-5 8-3 1 2-5 7-11z" fill="#EBB540"/>
<path transform="translate(196,496)" d="m0 0 3 1-14 12-8 7-5 5-2-1 6-9 6-4z" fill="#6C9340"/>
<path transform="translate(255,452)" d="m0 0 2 1-11 6-11 7-14 9v-3l5-4 14-8h2v-2l5-3z" fill="#C6B725"/>
<path transform="translate(82,663)" d="m0 0 2 4h-3v4l-5 1-2 5-4-1 6-9z" fill="#1E7F4F"/>
<path transform="translate(376,184)" d="m0 0 1 4-3 4-5 10-2 1 3-11z" fill="#EDA52F"/>
<path transform="translate(122,596)" d="m0 0 3 1-1 6-4 1-3 3-1-2z" fill="#207E54"/>
<path transform="translate(428,139)" d="m0 0 2 1-6 4-7 3-6 2 4-4z" fill="#EAB138"/>
<path transform="translate(323,791)" d="m0 0h2v3l-9 7-2-1 3-4h3v-2z" fill="#267F4C"/>
<path transform="translate(93,640)" d="m0 0 4 2-1 4-4 1-1-4z" fill="#24804D"/>
<path transform="translate(40,869)" d="m0 0h3l4 5 1 5-5-4z" fill="#1F7E4C"/>
<path transform="translate(307,805)" d="m0 0h2l-2 4-6 6-3-1 3-3h2l1-3z" fill="#207D4F"/>
<path transform="translate(637,612)" d="m0 0 2 1-1 4h-3l-1 5h-2v-5z" fill="#9DA82F"/>
<path transform="translate(317,420)" d="m0 0h8l-4 3-8 1z" fill="#EDB247"/>
</svg>
